<svg xmlns="http://www.w3.org/2000/svg" viewBox="0 0 1000 800"><rect width="1000" height="800" fill="#f3efe7"/><style>text{font-family:Arial,sans-serif;fill:#39352f}.line{fill:none;stroke:#514a40;stroke-width:1.3}.dim{fill:none;stroke:#786c57;stroke-width:1}</style><text x="50" y="58" font-size="24">Individual Category</text><text x="50" y="86" font-size="12" letter-spacing="2">MODEL DIMENSIONS / mm</text><path class="dim" d="M50 110H950"/><path class="line" d="M266.40,213.00L273.60,213.00L280.00,214.60L282.80,216.20L283.60,217.40L284.40,217.40L284.40,218.20L285.60,219.00L287.60,222.60L289.60,231.00L289.60,239.00L288.40,251.80L286.00,259.00L288.40,261.40L296.00,264.60L300.80,268.20L309.20,272.20L309.60,273.00L311.20,273.40L312.00,274.60L315.20,276.20L318.80,279.80L318.80,280.60L321.20,283.40L321.20,284.60L323.20,288.20L327.20,319.40L332.00,336.20L331.60,344.20L330.00,347.40L330.00,348.60L325.60,353.00L325.60,353.80L320.40,356.20L320.00,357.00L315.20,358.20L304.80,357.80L299.60,355.40L296.80,352.20L296.00,352.20L293.20,367.40L291.60,381.00L290.00,410.60L290.80,412.60L292.40,413.40L295.60,417.00L296.80,416.60L302.00,401.40L303.20,394.20L304.40,392.60L305.60,392.60L307.60,396.20L308.40,399.40L308.80,410.20L308.40,414.20L305.20,423.40L306.40,422.60L309.60,415.40L310.80,414.20L312.00,414.20L312.80,417.00L312.00,425.80L310.40,430.60L309.20,431.80L307.20,436.20L308.40,435.80L310.80,433.00L311.60,433.00L317.20,426.60L318.80,426.60L319.20,427.40L318.00,433.40L316.40,436.60L315.60,437.00L315.20,438.60L308.40,445.80L306.80,446.60L306.80,447.40L307.60,447.80L310.00,446.20L311.20,446.20L314.40,444.60L317.20,442.20L319.60,442.20L318.80,445.40L316.80,447.40L316.80,448.20L312.00,452.60L308.00,454.60L310.80,454.60L315.20,453.00L317.20,453.00L317.20,454.20L314.00,457.80L307.60,461.00L308.40,461.40L311.60,460.60L311.60,462.20L306.80,465.40L302.80,466.20L302.40,467.40L303.60,467.40L304.00,468.60L299.60,472.60L299.60,473.80L301.20,477.00L302.00,481.80L302.80,483.00L310.40,514.60L311.20,515.80L314.40,528.60L314.00,531.80L315.20,536.20L316.40,537.00L316.80,538.20L318.80,548.60L320.00,551.80L320.00,553.80L321.20,557.00L321.20,559.00L322.40,562.20L322.40,564.20L323.60,567.40L323.60,569.40L324.40,571.00L323.20,574.60L323.20,576.20L324.00,577.00L322.40,579.40L322.40,580.60L320.80,583.80L320.00,584.20L319.60,585.80L318.00,587.00L341.60,587.00L344.00,587.40L345.20,588.60L345.20,595.40L344.40,596.60L342.40,597.00L278.40,597.00L197.60,597.00L195.60,596.60L194.80,595.80L194.80,588.60L196.00,587.40L222.00,587.00L220.40,585.80L216.80,579.00L216.80,577.80L216.00,577.00L216.80,576.20L216.80,574.60L215.60,571.00L216.40,569.40L216.40,567.40L217.60,564.20L217.60,562.20L218.80,559.00L218.80,557.00L220.00,553.80L220.00,551.80L221.20,548.60L223.60,536.60L224.80,536.20L224.80,534.60L226.00,531.80L225.60,528.60L229.20,514.20L230.00,513.00L239.20,475.40L240.40,473.80L239.60,471.00L237.20,469.00L237.60,466.60L236.80,465.80L234.40,465.40L231.20,463.80L229.20,461.80L229.60,460.60L232.80,461.40L234.80,461.00L233.20,461.00L227.60,458.20L226.40,456.60L224.80,455.80L224.80,455.00L223.60,453.80L224.00,453.00L226.00,453.00L230.40,454.60L233.60,454.60L229.20,452.60L223.60,447.40L221.60,443.80L222.00,441.80L225.20,443.00L226.80,444.60L231.60,447.00L233.20,447.00L233.20,445.80L231.60,445.00L227.60,441.00L227.60,440.20L224.40,436.20L222.40,431.40L222.00,426.60L224.40,427.00L225.60,428.20L225.60,429.00L230.40,433.80L231.20,433.80L233.20,436.20L234.00,436.20L231.60,431.40L230.80,431.00L229.20,426.20L228.40,422.20L228.40,416.60L229.20,414.20L230.40,414.20L233.20,419.00L233.20,420.20L235.60,423.40L232.80,414.60L232.40,411.40L232.40,400.60L233.60,395.80L235.60,392.20L237.20,393.00L238.00,394.60L239.20,401.80L244.00,415.80L245.20,416.20L247.60,413.40L248.40,413.40L249.60,412.20L249.20,393.80L247.60,379.40L247.60,374.20L244.00,353.00L243.20,353.00L240.40,355.80L237.60,356.60L236.00,357.80L225.20,358.20L220.40,357.00L219.20,355.80L214.80,353.80L210.40,349.00L209.60,346.20L208.80,345.40L208.00,342.20L208.00,336.60L212.80,318.60L214.00,305.40L215.60,297.40L216.40,289.00L219.20,282.20L224.40,276.20L225.20,276.20L226.00,275.00L230.00,273.00L231.60,271.40L239.20,267.80L242.80,265.00L251.20,261.40L253.20,259.40L253.60,257.00L252.40,255.00L251.60,251.80L250.40,239.40L250.40,231.00L251.60,224.60L253.20,221.80L253.20,220.60L254.40,219.80L255.60,217.40L256.40,217.40L259.20,215.00L266.40,213.00Z"/><path class="dim" d="M194.79741501347291 604.9847562113387V639.9847562113387M345.2025849865271 604.9847562113387V639.9847562113387M194.79741501347291 631.9847562113387H345.2025849865271M190.79741501347291 635.9847562113387l8 -8M341.2025849865271 635.9847562113387l8 -8"/><text x="270" y="655.9847562113387" text-anchor="middle" font-size="15">146.5</text><path class="dim" d="M186.79741501347291 213.01524378866128H144.79741501347291M186.79741501347291 596.9847562113387H144.79741501347291M152.79741501347291 213.01524378866128V596.9847562113387M148.79741501347291 217.01524378866128l8 -8M148.79741501347291 600.9847562113387l8 -8"/><text transform="translate(140.79741501347291,405) rotate(-90)" text-anchor="middle" font-size="15">374.0</text><text x="270" y="690" text-anchor="middle" font-size="13" letter-spacing="2">FRONT</text><path class="line" d="M737.20,213.00L742.80,213.00L746.80,213.80L754.00,217.40L759.60,223.80L762.00,231.00L762.40,238.60L761.60,245.40L759.60,254.20L755.60,264.60L754.00,265.80L754.00,266.60L752.80,267.80L749.20,269.80L746.40,270.20L743.60,269.00L741.20,269.00L740.80,269.80L742.40,276.20L744.40,280.20L750.00,285.00L750.40,286.60L751.20,287.00L752.80,290.20L754.80,296.20L756.00,303.80L756.00,314.20L753.60,322.20L753.60,327.80L754.80,330.60L756.40,332.20L759.20,333.40L764.80,333.80L770.00,332.60L778.40,328.20L781.20,327.80L783.60,326.60L784.80,325.40L785.60,323.00L783.20,321.00L783.20,320.20L781.20,318.60L781.20,317.80L809.20,290.20L810.00,288.60L810.80,288.60L817.20,295.40L818.80,294.60L819.60,295.40L819.60,296.60L820.40,297.00L820.40,297.80L814.00,303.80L814.80,305.80L814.80,310.60L811.60,317.40L810.80,317.80L808.40,322.20L807.20,323.00L805.60,326.20L796.40,335.80L795.60,335.80L790.40,341.00L782.00,345.40L776.00,350.60L775.20,350.60L772.40,353.00L770.00,353.80L769.60,354.60L763.60,357.00L754.40,358.60L753.60,368.60L748.00,393.40L748.40,393.80L749.20,392.60L751.20,399.40L752.40,416.20L753.60,420.60L753.60,425.40L754.40,429.80L756.40,430.20L758.80,429.40L761.60,429.40L771.20,488.60L771.20,490.20L769.20,490.60L769.20,491.80L778.80,528.20L778.40,531.00L779.60,535.80L781.20,537.40L781.20,539.40L783.20,539.40L783.60,540.20L783.60,541.40L782.40,541.40L782.00,542.60L786.80,563.40L789.20,564.20L789.20,565.80L787.60,566.20L788.80,570.60L788.80,572.20L788.00,572.20L788.40,577.40L785.20,583.80L782.80,587.00L808.80,587.40L809.60,588.20L809.60,595.80L807.20,597.00L662.00,597.00L659.60,596.20L659.20,594.20L659.20,589.80L659.60,587.80L660.40,587.40L686.40,587.00L684.40,585.00L680.80,577.80L681.20,573.00L680.00,571.40L681.20,568.20L681.20,566.20L682.40,563.00L682.40,561.00L683.60,557.80L683.60,555.80L684.80,552.60L684.80,550.60L686.00,547.40L688.00,537.00L689.20,536.60L690.80,530.60L690.00,529.00L692.00,521.00L692.80,519.80L704.00,474.60L706.00,473.00L720.80,473.00L717.60,465.00L716.40,453.80L707.60,436.20L707.60,435.00L704.40,429.40L702.40,423.00L702.40,416.20L704.80,409.80L706.40,408.60L707.20,407.00L708.00,407.00L709.60,405.40L714.40,404.60L714.80,385.80L719.20,364.20L720.40,354.60L720.40,344.20L719.60,339.40L716.80,331.00L716.00,330.20L715.60,327.80L714.00,325.00L713.60,322.60L712.80,321.80L712.40,319.40L711.60,318.60L711.20,316.20L710.40,315.40L709.60,311.80L708.80,311.00L706.80,303.80L705.60,295.00L705.60,285.80L707.20,274.20L709.60,266.20L712.00,261.40L716.00,257.40L718.40,252.60L718.80,247.00L717.20,240.60L717.20,231.00L718.80,224.60L719.60,223.00L720.80,222.20L720.80,221.40L725.60,217.00L730.40,214.60L737.20,213.00Z"/><path class="line" d="M746.00,413.80L747.20,418.20L746.80,407.00L746.80,402.20L746.00,405.00L746.00,413.80Z"/><path class="line" d="M750.00,463.00L754.00,463.00L752.40,455.40L751.60,453.80L751.20,458.60L750.00,463.00Z"/><path class="dim" d="M659.3561358267344 604.9847562113387V639.9847562113387M820.6438641732656 604.9847562113387V639.9847562113387M659.3561358267344 631.9847562113387H820.6438641732656M655.3561358267344 635.9847562113387l8 -8M816.6438641732656 635.9847562113387l8 -8"/><text x="740" y="655.9847562113387" text-anchor="middle" font-size="15">157.1</text><path class="dim" d="M651.3561358267344 213.01524378866128H609.3561358267344M651.3561358267344 596.9847562113387H609.3561358267344M617.3561358267344 213.01524378866128V596.9847562113387M613.3561358267344 217.01524378866128l8 -8M613.3561358267344 600.9847562113387l8 -8"/><text transform="translate(605.3561358267344,405) rotate(-90)" text-anchor="middle" font-size="15">374.0</text><text x="740" y="690" text-anchor="middle" font-size="13" letter-spacing="2">SIDE</text><path class="dim" d="M50 720H950"/><text x="50" y="748" font-size="12">Overall dimensions measured from the assembled Blender model.</text><text x="50" y="771" font-size="12">Dimensions in millimetres. Material and manufacturing tolerances are unconfirmed.</text></svg>